<?xml version="1.0" encoding="utf-8"?>
<!-- Generator: Adobe Illustrator 19.0.0, SVG Export Plug-In . SVG Version: 6.00 Build 0)  -->
<svg version="1.1" xmlns="http://www.w3.org/2000/svg" xmlns:xlink="http://www.w3.org/1999/xlink" x="0px" y="0px"
	 viewBox="0 0 612 792" style="enable-background:new 0 0 612 792;" xml:space="preserve">
<style type="text/css">
	.st0{fill-rule:evenodd;clip-rule:evenodd;fill:url(#SVGID_1_);}
	.st1{display:none;fill-rule:evenodd;clip-rule:evenodd;fill:#965E38;}
	.st2{display:none;fill-rule:evenodd;clip-rule:evenodd;fill:#EEDFDF;}
	.st3{display:none;fill-rule:evenodd;clip-rule:evenodd;fill:#E7DADA;}
	.st4{display:none;fill-rule:evenodd;clip-rule:evenodd;fill:#EAD3D6;}
	.st5{display:none;}
	.st6{display:inline;fill-rule:evenodd;clip-rule:evenodd;fill:#D39228;}
	.st7{display:inline;fill:#C1C1C1;}
	.st8{display:inline;fill:url(#XMLID_98_);}
	.st9{display:inline;fill:url(#XMLID_99_);}
	.st10{display:inline;fill:url(#XMLID_100_);}
	.st11{display:inline;fill:url(#XMLID_101_);}
	.st12{display:inline;fill:url(#XMLID_102_);}
	.st13{display:inline;fill:url(#XMLID_103_);}
	.st14{display:inline;fill:url(#XMLID_104_);}
	.st15{display:inline;fill:url(#XMLID_105_);}
	.st16{display:inline;fill:url(#XMLID_106_);}
	.st17{display:inline;fill:url(#XMLID_107_);}
	.st18{display:inline;fill:url(#XMLID_108_);}
	.st19{display:inline;fill:url(#XMLID_109_);}
	.st20{display:inline;fill:url(#XMLID_110_);}
	.st21{display:inline;fill:#FEFEFE;}
	.st22{display:inline;}
	.st23{fill:#C1C1C1;}
	.st24{fill:url(#XMLID_111_);}
	.st25{fill:url(#XMLID_112_);}
	.st26{fill:url(#XMLID_113_);}
	.st27{fill:url(#XMLID_114_);}
	.st28{fill:url(#XMLID_115_);}
	.st29{fill:url(#XMLID_116_);}
	.st30{fill:url(#XMLID_117_);}
	.st31{fill:url(#XMLID_118_);}
	.st32{fill:url(#XMLID_119_);}
	.st33{fill:url(#XMLID_120_);}
	.st34{fill:url(#XMLID_121_);}
	.st35{fill:url(#XMLID_122_);}
	.st36{fill:url(#XMLID_123_);}
	.st37{fill:url(#XMLID_124_);}
	.st38{fill:url(#XMLID_125_);}
	.st39{fill:url(#XMLID_126_);}
	.st40{fill:url(#XMLID_127_);}
	.st41{fill:url(#XMLID_128_);}
	.st42{fill:url(#XMLID_129_);}
	.st43{fill:url(#XMLID_130_);}
	.st44{fill:#FEFEFE;}
	.st45{fill:url(#XMLID_131_);}
	.st46{fill:url(#XMLID_132_);}
	.st47{fill:url(#XMLID_133_);}
	.st48{fill:url(#XMLID_134_);}
	.st49{fill:url(#XMLID_135_);}
	.st50{display:inline;fill-rule:evenodd;clip-rule:evenodd;fill:none;stroke:#EEDFDF;stroke-width:60;stroke-miterlimit:10;}
	.st51{display:inline;fill-rule:evenodd;clip-rule:evenodd;fill:none;stroke:#EEDFDF;stroke-miterlimit:10;}
</style>
<g id="Layer_1">
	<linearGradient id="SVGID_1_" gradientUnits="userSpaceOnUse" x1="523.4089" y1="362.8264" x2="86.05" y2="676.9294">
		<stop  offset="0" style="stop-color:#CF8540"/>
		<stop  offset="1" style="stop-color:#AB7341"/>
	</linearGradient>
	<path class="st0" d="M221,394.5l-9.3,5.7c-23.4,13.2-74.2,58.4-88.7,80.6c-19.4,29.6-27.7,54.4-26.3,90.3
		c2.1,54.5,49.7,108.3,103,118.2c88.9,16.6,196.4-32,255.2-98.4c36.2-40.9,69.9-107,60.9-163.6c-9.9-62.3-50-93.3-112.4-95.8
		c-59.9-2.5-81.2,7.8-133.7,33.7C265.1,367.5,221.3,392.3,221,394.5L221,394.5z M253.9,527.2c-4.5-23,80.5-79.4,102.3-71.9
		c-7.4,28.9-72.2,63.9-98.8,72.2C255.7,528.1,257.2,529.4,253.9,527.2L253.9,527.2z"/>
	<path id="XMLID_89_" class="st1" d="M322.6,390.4l-116.4,66.9c-15.3,35.3-23.6,59.6,1.1,90.8c4.3,5.4,9.3,9.9,14.7,13.3
		c3.6,0.4,7.4,0.5,11.7,0.6l24.8-31.5c-6.6-5.1-18-16.2-16.1-25.5c1.2-6,17.5,5.4,22-11.1c1.4-5.2-5.2-36.2-5.2-46.3
		c6.9-0.6,24.4,25.5,31.3,15.9c2.6-3.7-7.5-16.3,10-5.7c10,6,21.6-4,17.1-14.9c0-0.1-3-14.1,5.2-2.7c5.2,7.3,8,11.1,9.5,18.1
		c10.2-4.1,18.9-5.9,24-4.1c-1.9,7.3-7.4,15-15.1,22.6c1.8,0.1,4.1-0.1,7-0.5c15.2-2.2,40.4-19.5,46.2-34
		c5.7-14.1,6.4-40.3-3.5-55.7c-16.7-10.4-43.1-6.6-60.9,1.1C327,389,325.6,390,322.6,390.4L322.6,390.4z"/>
	<path id="XMLID_88_" class="st2" d="M94.2,599.1c7.1,18.3,16.8,48.2,35.4,46.3c5.1-0.5,12.3,0.8,17-12.7c2.3-6.7,3.5-24.1,26.5,0
		c6.8,7.2,32.9,22.6,43.5,24.7c24.7,5,42.3,2.8,61.6-15.3c16.1-15.2,11-47.5,41.2-35.2c14.6,5.9,28.5,7.5,33.8-10.5
		c2.3-7.8-3.3-10.9,13.3-13.8c25.8-4.5,38.9,17.4,68.6-13.7c12.4-13,9.9-32.9,5.4-48.3c-9.6-32.5,29.1-18.5,42.1-25.6
		c14.7-8,18.8-27.5,11.8-42.3c-3.9-8.1-9.1-11.9-11.7-19.6c-3.1-9.1-15.7-30,3.8-30c12.2,0,17.6,5,22,2.8
		c20.9-10.8-14.4-45.6-33.3-60.2c-18.1-14-40.2-21.5-64.6-23.8c16,8.6,35.5,22.1,34.3,34.6c-0.6,6.1-11,6.7-7.4,37.7
		c2.7,23.1,27.4,43.6,10.1,56.4c-15,11.1-43.3,13.5-48.4,28.9c-5.4,16.4,10,34.6-11.4,44.9c-9.5,4.6-32,6.1-42.8,7.8
		c-18.1,2.9-14.5,28.4-32.9,18.6c-19.1-10.1-36.1,6.8-47.5,20.1c-13.3,15.5-37.4,28-58,19.3c-10.6-4.4-22.3-9.8-33.5-11.3
		c-28.2-3.9-35,6.9-56.8-18.8c-14.9-17.5-16.7-33-15.4-51.9C86.8,539.1,83.1,570.3,94.2,599.1L94.2,599.1z"/>
	<path id="XMLID_87_" class="st3" d="M213.5,510.9c-0.2-0.2-0.3-0.3-0.5-0.5c-7.2-14-13.1-37.3,3.4-45.4
		c12.8-6.4,22.1,22.4,22.1-11.1c0-12.7,5.7-25.3,20.7-20.1c19.3,6.7,8.9,3.7,18.5-7.6c7.5-8.8,17.4,21.9,24.3-11.9
		c2.2-10.9,16.1-4,21.2,4.8c7.1,11.9,13.1-9.8,18.5,5.1c0.2,0.6,0.4,1.1,0.6,1.7c-7.6-3.5-3.1,14.2-6.2,16.1
		c-8.1,4.9-11.8-10-14.4-14.2c-0.8-1.2-4.8-4.5-5.7-4.7c-11-2.3-2.5,13.9-4.5,21.7c-3.9,14.8-17.2,0.5-19.7-1.1
		c-8.8-5.7-7.3-0.2-7.3,6c0,19-20.5-9.7-27.2-5.3c-7.7,5,2.8,21.3,0.1,34.6c-3.3,16.3-21.4,18.6-29.1,7.1
		C217.9,470.3,209.4,497.5,213.5,510.9L213.5,510.9z"/>
	<path id="XMLID_86_" class="st4" d="M224.2,524.4c-14.8-6.3-15.9-19.3-16.5-34.4c-0.3-6.8,3.5-16.1,12-16.1
		c11.3,0,19.8,20.7,27,7.4c6.4-12-10.6-43.3,11.8-44.2c5-0.2,26.2,26.1,23.5,4c-1.4-11.6,1.7-8.1,10-3.6c5.2,2.9,14.7,16.9,14.7-5.1
		c0-7.2-2.3-24.6,9.5-15.6c7.4,5.6,15,28.1,17.9,13.7c0.8-3.8,0.8-6.9,8-5.5c1.1,0.2,1.9,1.1,2.5,2.4c-10.9-8.4-5.2,12.5-8.6,14.6
		c-8.1,4.9-11.8-10-14.4-14.2c-0.8-1.2-4.8-4.5-5.7-4.7c-11-2.3-2.5,13.9-4.5,21.7c-3.9,14.8-17.2,0.5-19.7-1.1
		c-8.8-5.7-7.3-0.2-7.3,6c0,19-20.5-9.7-27.2-5.3c-7.7,5,2.8,21.3,0.1,34.6c-3.3,16.3-21.4,18.6-29.1,7.1
		c-11.2-16.9-20.2,16.1-13.6,27.8C217.5,518.5,220.6,522,224.2,524.4L224.2,524.4z"/>
	<g id="XMLID_93_" class="st5">
		<path id="XMLID_90_" class="st6" d="M113.7,625.8c7.2,12.2,16.4,23.5,27,33c9.7-6.3,15.1-23.8,23.4-16.5
			c13.5,11.9,33.7,36.1,53.1,39.4c23.7,4.1,51.6-8.6,59.7-31.7c22.2-63.1,22.7-29.9,46.5-21.1c21.7,8.1,29.6-13.7,35.5-29.9
			c8.6-23.3,33-17.4,51.5-14.1c17.2,3.1,29.6-5.3,39-19.8c16.9-26.1,0.9-35.6,5.7-58.1c3.8-18.2,36.3,2.7,48.6-26
			c9.6-22.4-6.7-45.5-7-55.8c-0.4-13.6,4.4-9.7,8.8-9.8c3.3-0.1,5.9-0.4,7.8-1c-13-53-50.9-79.9-107.4-82.9
			c-24.9,47.4-15.6,143.5-62.2,195.2C313.5,560.3,139.5,586.4,113.7,625.8L113.7,625.8z"/>
		<path id="XMLID_85_" class="st6" d="M94.2,599.1c7.1,18.3,16.8,48.2,35.4,46.3c5.1-0.5,12.3,0.8,17-12.7c2.3-6.7,3.5-24.1,26.5,0
			c6.8,7.2,32.9,22.6,43.5,24.7c24.7,5,42.3,2.8,61.6-15.3c16.1-15.2,11-47.5,41.2-35.2c14.6,5.9,28.5,7.5,33.8-10.5
			c2.3-7.8-3.3-10.9,13.3-13.8c25.8-4.5,38.9,17.4,68.6-13.7c12.4-13,9.9-32.9,5.4-48.3c-9.6-32.5,29.1-18.5,42.1-25.6
			c14.7-8,18.8-27.5,11.8-42.3c-3.9-8.1-9.1-11.9-11.7-19.6c-3.1-9.1-15.7-30,3.8-30c12.2,0,17.6,5,22,2.8c8.7-4.5,7.6-13.2,2-22.9
			c0.2,10.4-2.2,11.5-19.8,10c-14.8-1.2-21.5-7.2-30.5,13.4c-11.7,26.6,33.4,48-12.7,61.3c-22.6,6.6-37,8.7-36.3,36.1
			c0.2,6.7-1,30.6-7.4,34.5c-23.7,14.8-56.9-15-62.2,18.2c-1.4,8.5-4.4,20.8-16.1,16c-7.9-3.3-14.2-6.3-21.9-10.9
			c-13.2-7.9-21.9,12.8-29.5,24.3c-9,13.8-33.6,44.5-48.7,43.7c-19.1-1-44.6-64.2-83.7-37.8c-28,18.9-32.8,15.9-45.1-8
			c-3-5.8-7.4-2.8-0.2-65.1C93,547.8,84.4,573.6,94.2,599.1L94.2,599.1z"/>
		<path id="XMLID_84_" class="st6" d="M104.1,623.3c6.2,12.6,14.2,23.2,25.5,22.1c5.1-0.5,12.3,0.8,17-12.7c2.3-6.7,3.5-24.1,26.5,0
			c6.8,7.2,32.9,22.6,43.5,24.7c24.7,5,42.3,2.8,61.6-15.3c16.1-15.2,11-47.5,41.2-35.2c14.6,5.9,28.5,7.5,33.8-10.5
			c2.3-7.8-3.3-10.9,13.3-13.8c25.8-4.5,38.9,17.4,68.6-13.7c12.4-13,9.9-32.9,5.4-48.3c-9.6-32.5,29.1-18.5,42.1-25.6
			c14.7-8,18.8-27.5,11.8-42.3c-3.9-8.1-9.1-11.9-11.7-19.6c-3.1-9.1-15.7-30,3.8-30c12.2,0,17.6,5,22,2.8c5.6-2.9,7.2-7.5,6.1-13
			c-0.6,1.8-1.7,3.2-3.6,3.4c-18.5,2.1-42.1-6.6-42.1,21c0,17.2,24.1,40.5-2.7,54.5c-13.8,7.2-51.1-1.4-38.6,39
			c8.3,26.8-6.2,51.8-35.5,50.9c-3-0.1-29.3-1.2-30.3-0.5c-14.2,9.5-7.7,24.4-19.2,34.2c-2.1,1.8-18.4,0.7-23.7-3.6
			c-4.3-3.6-27.1-14.3-32.3-6.6c-9.5,14.1-6.4,12.6-12,28.1c-9.9,27.5-48.8,43.7-73.3,26.1c-14.5-10.4-55.4-71.7-61.7-26.1
			c-1.2,8.9-5,21.4-15.4,22.7C111.5,637.3,110.4,631.3,104.1,623.3L104.1,623.3z"/>
		<path class="st6" d="M115.1,505c-2.6,17.3-3.9,34.8,13.7,47.8c13,9.6,37.2,2.8,57.5,6.5c22.3,4.1,27.1,22.7,51.4,9.2
			c10.1-5.7,28.4-37.1,63.5-35c10.2,0.6,23.6-2.5,32.1-6.6c32.8-15.7,63.9-61.3,73.3-96.1c6.3-23.3,13.3-9.9,11.2-27
			c-3-24.8,2.9-50.1-29-60.7c-9.5-6-17.4-6.5-30.3-7.3C291.8,331.6,126.4,431,115.1,505L115.1,505z M326.7,500.2
			c-16.4,12.6-34.6,22.8-54.4,29c-15.4,4.8-52.9,14.5-66,1.8c-17.9-17.4-13.3-46.3-10.7-69c0.8-7.3,9-24.5,16.7-20.4
			c13.2,7,22.3-41.7,53.9-36.5c6,1,28.2-24.6,61.9-24.6c8.4,0,5.1,18.4,16.8,5.2C394.9,412,359,475.4,326.7,500.2L326.7,500.2z"/>
		<path id="XMLID_81_" class="st6" d="M325.1,372.2c17.4,0,11.3,10.7,22.9,7.3c11.2-3.4,24.2,27.3,25.6,36.2
			c2.5,16.4,1.2,16.4-3.1,32.2c-0.8,2.9,0.4,4.8,2.7,0.4c10.7-20.8,11.1-39.6,5.4-61.8c-2.2-8.7-17.2-19.5-25.5-21.6
			c-28.2-7.1-35.1-3.6-59.9,6.7c-10.9,4.6-20.1,11.4-29.6,17.3c-5.9,3.7-15.4,7.4,0.4,6.9C274,395.6,295.9,372.2,325.1,372.2
			L325.1,372.2z"/>
	</g>
	<g id="XMLID_94_" class="st5">
		<path id="XMLID_80_" class="st7" d="M138.7,559.9c-1.4-0.8-1.9-2.6-1.1-4.1c0.8-1.4,2.6-1.9,4.1-1.1l12.9,7.3
			c1.4,0.8,1.9,2.6,1.1,4.1c-0.8,1.4-2.6,1.9-4.1,1.1L138.7,559.9L138.7,559.9z"/>
		<linearGradient id="XMLID_98_" gradientUnits="userSpaceOnUse" x1="146.8143" y1="551.2806" x2="146.8143" y2="564.5327">
			<stop  offset="0" style="stop-color:#FFFFFF"/>
			<stop  offset="0.4493" style="stop-color:#FFFDFE"/>
			<stop  offset="0.6893" style="stop-color:#FDF5F9"/>
			<stop  offset="0.8794" style="stop-color:#FBE7F1"/>
			<stop  offset="1" style="stop-color:#F8DAE9"/>
		</linearGradient>
		<path id="XMLID_79_" class="st8" d="M138.9,556.9c-1.4-0.8-1.9-2.6-1.1-4.1c0.8-1.4,2.6-1.9,4.1-1.1l12.9,7.3
			c1.4,0.8,1.9,2.6,1.1,4.1c-0.8,1.4-2.6,1.9-4.1,1.1L138.9,556.9L138.9,556.9z"/>
		<path id="XMLID_78_" class="st7" d="M186.5,423.5c-1.4-0.8-1.9-2.6-1.1-4.1c0.8-1.4,2.6-1.9,4.1-1.1l12.9,7.3
			c1.4,0.8,1.9,2.6,1.1,4.1c-0.8,1.4-2.6,1.9-4.1,1.1L186.5,423.5L186.5,423.5z"/>
		<linearGradient id="XMLID_99_" gradientUnits="userSpaceOnUse" x1="194.683" y1="414.8497" x2="194.683" y2="428.1046">
			<stop  offset="0" style="stop-color:#FFFFFF"/>
			<stop  offset="0.4493" style="stop-color:#FFFDFE"/>
			<stop  offset="0.6893" style="stop-color:#FDF5F9"/>
			<stop  offset="0.8794" style="stop-color:#FBE7F1"/>
			<stop  offset="1" style="stop-color:#F8DAE9"/>
		</linearGradient>
		<path id="XMLID_77_" class="st9" d="M186.8,420.4c-1.4-0.8-1.9-2.6-1.1-4.1c0.8-1.4,2.6-1.9,4.1-1.1l12.9,7.3
			c1.4,0.8,1.9,2.6,1.1,4.1c-0.8,1.4-2.6,1.9-4.1,1.1L186.8,420.4L186.8,420.4z"/>
		<path id="XMLID_76_" class="st7" d="M178.5,566.2c-0.2-1.6,1.2-3.1,3.1-3.2c1.9-0.2,3.6,1.1,3.7,2.7l1.6,14.7
			c0.2,1.6-1.2,3.1-3.1,3.3c-1.9,0.1-3.6-1.1-3.7-2.7L178.5,566.2L178.5,566.2z"/>
		<linearGradient id="XMLID_100_" gradientUnits="userSpaceOnUse" x1="182.8257" y1="560.3876" x2="182.8257" y2="581.1014">
			<stop  offset="0" style="stop-color:#FFFFFF"/>
			<stop  offset="0.4493" style="stop-color:#FFFDFE"/>
			<stop  offset="0.6893" style="stop-color:#FDF5F9"/>
			<stop  offset="0.8794" style="stop-color:#FBE7F1"/>
			<stop  offset="1" style="stop-color:#F8DAE9"/>
		</linearGradient>
		<path id="XMLID_75_" class="st10" d="M179.2,563.6c-0.2-1.6,1.1-3.1,2.7-3.2c1.6-0.2,3.1,1.1,3.2,2.7l1.4,14.7
			c0.2,1.6-1.1,3.1-2.7,3.2c-1.6,0.1-3.1-1.1-3.3-2.7L179.2,563.6L179.2,563.6z"/>
		<path id="XMLID_74_" class="st7" d="M155.6,464.3c1.4-0.8,3.3-0.1,4.2,1.5c0.9,1.7,0.5,3.7-1,4.5l-12.9,7.4
			c-1.4,0.8-3.3,0.1-4.2-1.5c-0.9-1.7-0.5-3.7,1-4.5L155.6,464.3L155.6,464.3z"/>
		<linearGradient id="XMLID_101_" gradientUnits="userSpaceOnUse" x1="151.1761" y1="460.7949" x2="150.1975" y2="474.789">
			<stop  offset="0" style="stop-color:#FFFFFF"/>
			<stop  offset="0.4493" style="stop-color:#FFFDFE"/>
			<stop  offset="0.6893" style="stop-color:#FDF5F9"/>
			<stop  offset="0.8794" style="stop-color:#FBE7F1"/>
			<stop  offset="1" style="stop-color:#F8DAE9"/>
		</linearGradient>
		<path id="XMLID_73_" class="st11" d="M155.7,461.6c1.4-0.8,3.3-0.3,4.1,1.2c0.8,1.4,0.3,3.3-1.2,4.1l-13,7.2
			c-1.4,0.8-3.3,0.3-4.1-1.2c-0.8-1.4-0.3-3.3,1.2-4.1L155.7,461.6L155.7,461.6z"/>
		<path id="XMLID_72_" class="st7" d="M96.7,535.2c0.7-1.5,2.6-2,4.3-1.2c1.7,0.8,2.5,2.7,1.8,4.2l-6.2,13.5c-0.7,1.5-2.6,2-4.3,1.2
			c-1.7-0.8-2.5-2.7-1.8-4.2L96.7,535.2L96.7,535.2z"/>
		<linearGradient id="XMLID_102_" gradientUnits="userSpaceOnUse" x1="95.8788" y1="530.9791" x2="95.8788" y2="550.3045">
			<stop  offset="0" style="stop-color:#FFFFFF"/>
			<stop  offset="0.4493" style="stop-color:#FFFDFE"/>
			<stop  offset="0.6893" style="stop-color:#FDF5F9"/>
			<stop  offset="0.8794" style="stop-color:#FBE7F1"/>
			<stop  offset="1" style="stop-color:#F8DAE9"/>
		</linearGradient>
		<path id="XMLID_71_" class="st12" d="M96.4,532.7c0.7-1.5,2.5-2.1,4-1.4c1.5,0.7,2.1,2.5,1.4,4l-6.4,13.4c-0.7,1.5-2.5,2.1-4,1.4
			c-1.5-0.7-2.1-2.5-1.4-4L96.4,532.7L96.4,532.7z"/>
		<path id="XMLID_70_" class="st7" d="M194.6,408.3c-0.9-1.4-0.6-3.2,0.7-4.2c1.4-0.9,3.2-0.6,4.2,0.7l8.5,12.1
			c0.9,1.3,0.6,3.2-0.7,4.2c-1.4,0.9-3.2,0.6-4.2-0.7L194.6,408.3L194.6,408.3z"/>
		<linearGradient id="XMLID_103_" gradientUnits="userSpaceOnUse" x1="201.6552" y1="401.0009" x2="201.6552" y2="419.1007">
			<stop  offset="0" style="stop-color:#FFFFFF"/>
			<stop  offset="0.4493" style="stop-color:#FFFDFE"/>
			<stop  offset="0.6893" style="stop-color:#FDF5F9"/>
			<stop  offset="0.8794" style="stop-color:#FBE7F1"/>
			<stop  offset="1" style="stop-color:#F8DAE9"/>
		</linearGradient>
		<path id="XMLID_69_" class="st13" d="M195,405.7c-0.9-1.3-0.6-3.2,0.7-4.2c1.4-0.9,3.2-0.6,4.2,0.7l8.5,12.1
			c0.9,1.4,0.6,3.2-0.7,4.2c-1.4,0.9-3.2,0.6-4.1-0.7L195,405.7L195,405.7z"/>
		<path id="XMLID_68_" class="st7" d="M166.4,551.7c-1.7,0-3-1.3-3.1-2.9c0-1.7,1.3-3,2.9-3.1l14.8-0.4c1.6,0,3,1.3,3.1,2.9
			c0,1.6-1.3,3-2.9,3.1L166.4,551.7L166.4,551.7z"/>
		<linearGradient id="XMLID_104_" gradientUnits="userSpaceOnUse" x1="172.3406" y1="542.5604" x2="172.3406" y2="548.9536">
			<stop  offset="0" style="stop-color:#FFFFFF"/>
			<stop  offset="0.4493" style="stop-color:#FFFDFE"/>
			<stop  offset="0.6893" style="stop-color:#FDF5F9"/>
			<stop  offset="0.8794" style="stop-color:#FBE7F1"/>
			<stop  offset="1" style="stop-color:#F8DAE9"/>
		</linearGradient>
		<path id="XMLID_67_" class="st14" d="M165,549c-1.7,0-3-1.3-3.1-2.9c0-1.7,1.3-3,2.9-3.1l14.8-0.4c1.6,0,3,1.3,3.1,2.9
			c0,1.7-1.3,3-2.9,3.1L165,549L165,549z"/>
		<path id="XMLID_66_" class="st7" d="M100,507.4c-0.5-1.6,0.4-3.2,2-3.7c1.6-0.5,3.2,0.4,3.7,2l4.2,14.2c0.5,1.6-0.4,3.2-2,3.7
			c-1.6,0.5-3.2-0.4-3.7-2L100,507.4L100,507.4z"/>
		<linearGradient id="XMLID_105_" gradientUnits="userSpaceOnUse" x1="105.1308" y1="500.964" x2="105.1308" y2="521.1241">
			<stop  offset="0" style="stop-color:#FFFFFF"/>
			<stop  offset="0.4493" style="stop-color:#FFFDFE"/>
			<stop  offset="0.6893" style="stop-color:#FDF5F9"/>
			<stop  offset="0.8794" style="stop-color:#FBE7F1"/>
			<stop  offset="1" style="stop-color:#F8DAE9"/>
		</linearGradient>
		<path id="XMLID_65_" class="st15" d="M100.2,504.8c-0.5-1.6,0.4-3.2,2-3.7c1.6-0.5,3.2,0.4,3.7,2l4.2,14.2c0.5,1.6-0.4,3.2-2,3.7
			c-1.6,0.5-3.2-0.4-3.7-2L100.2,504.8L100.2,504.8z"/>
		<path id="XMLID_64_" class="st7" d="M140.5,454.2c-1.7,0-3-1.3-3-2.9c0-1.6,1.3-3,2.9-3l14.8-0.2c1.7,0,3,1.3,3,2.9
			c0,1.7-1.3,3-2.9,3L140.5,454.2L140.5,454.2z"/>
		<linearGradient id="XMLID_106_" gradientUnits="userSpaceOnUse" x1="146.7914" y1="444.6943" x2="146.2873" y2="451.9027">
			<stop  offset="0" style="stop-color:#FFFFFF"/>
			<stop  offset="0.4493" style="stop-color:#FFFDFE"/>
			<stop  offset="0.6893" style="stop-color:#FDF5F9"/>
			<stop  offset="0.8794" style="stop-color:#FBE7F1"/>
			<stop  offset="1" style="stop-color:#F8DAE9"/>
		</linearGradient>
		<path id="XMLID_63_" class="st16" d="M139.2,451.4c-1.7,0-3-1.3-3-2.9c0-1.7,1.3-3,2.9-3l14.8-0.2c1.7,0,3,1.3,3,2.9
			c0,1.7-1.3,3-2.9,3L139.2,451.4L139.2,451.4z"/>
		<path id="XMLID_62_" class="st7" d="M181.5,431.9c0.8-1.4,2.8-1.8,4.4-0.8c1.6,1,2.2,3,1.4,4.4l-7.5,12.8
			c-0.8,1.4-2.8,1.8-4.4,0.8c-1.6-1-2.2-3-1.4-4.4L181.5,431.9L181.5,431.9z"/>
		<linearGradient id="XMLID_107_" gradientUnits="userSpaceOnUse" x1="180.8082" y1="427.7858" x2="179.4723" y2="446.8887">
			<stop  offset="0" style="stop-color:#FFFFFF"/>
			<stop  offset="0.4493" style="stop-color:#FFFDFE"/>
			<stop  offset="0.6893" style="stop-color:#FDF5F9"/>
			<stop  offset="0.8794" style="stop-color:#FBE7F1"/>
			<stop  offset="1" style="stop-color:#F8DAE9"/>
		</linearGradient>
		<path id="XMLID_61_" class="st17" d="M181.4,429.5c0.9-1.4,2.7-1.9,4.1-1c1.4,0.9,1.9,2.7,1,4.1l-7.7,12.7c-0.9,1.4-2.7,1.9-4.1,1
			c-1.4-0.9-1.9-2.7-1-4.1L181.4,429.5L181.4,429.5z"/>
		<path id="XMLID_60_" class="st7" d="M128.1,484.1c-0.5-1.6,0.4-3.2,2-3.7c1.6-0.5,3.2,0.4,3.7,2l4.2,14.2c0.5,1.6-0.4,3.2-2,3.7
			c-1.6,0.5-3.2-0.4-3.7-2L128.1,484.1L128.1,484.1z"/>
		<linearGradient id="XMLID_108_" gradientUnits="userSpaceOnUse" x1="133.8609" y1="477.9005" x2="132.4774" y2="497.6853">
			<stop  offset="0" style="stop-color:#FFFFFF"/>
			<stop  offset="0.4493" style="stop-color:#FFFDFE"/>
			<stop  offset="0.6893" style="stop-color:#FDF5F9"/>
			<stop  offset="0.8794" style="stop-color:#FBE7F1"/>
			<stop  offset="1" style="stop-color:#F8DAE9"/>
		</linearGradient>
		<path id="XMLID_59_" class="st18" d="M128.2,481.6c-0.5-1.6,0.4-3.2,2-3.7c1.6-0.5,3.2,0.4,3.7,2l4.2,14.2c0.5,1.6-0.4,3.2-2,3.7
			c-1.6,0.5-3.2-0.4-3.7-2L128.2,481.6L128.2,481.6z"/>
		<path id="XMLID_58_" class="st7" d="M146.7,506c1.4-0.8,3.3-0.1,4.2,1.6c0.9,1.7,0.5,3.7-1,4.5l-12.9,7.4
			c-1.4,0.8-3.3,0.1-4.2-1.6s-0.5-3.7,1-4.5L146.7,506L146.7,506z"/>
		<linearGradient id="XMLID_109_" gradientUnits="userSpaceOnUse" x1="142.2881" y1="502.5071" x2="141.3092" y2="516.5063">
			<stop  offset="0" style="stop-color:#FFFFFF"/>
			<stop  offset="0.4493" style="stop-color:#FFFDFE"/>
			<stop  offset="0.6893" style="stop-color:#FDF5F9"/>
			<stop  offset="0.8794" style="stop-color:#FBE7F1"/>
			<stop  offset="1" style="stop-color:#F8DAE9"/>
		</linearGradient>
		<path id="XMLID_57_" class="st19" d="M146.8,503.3c1.4-0.8,3.3-0.3,4.1,1.2c0.8,1.4,0.3,3.3-1.2,4.1l-13,7.2
			c-1.4,0.8-3.3,0.3-4.1-1.2c-0.8-1.4-0.3-3.3,1.2-4.1L146.8,503.3L146.8,503.3z"/>
		<path id="XMLID_56_" class="st7" d="M103.8,562.6c-1.4-0.8-1.9-2.6-1.1-4.1c0.8-1.4,2.6-1.9,4.1-1.1l12.9,7.3
			c1.4,0.8,1.9,2.6,1.1,4.1c-0.8,1.4-2.6,1.9-4.1,1.1L103.8,562.6L103.8,562.6z"/>
		<linearGradient id="XMLID_110_" gradientUnits="userSpaceOnUse" x1="111.9412" y1="554.0168" x2="111.9412" y2="567.2702">
			<stop  offset="0" style="stop-color:#FFFFFF"/>
			<stop  offset="0.4493" style="stop-color:#FFFDFE"/>
			<stop  offset="0.6893" style="stop-color:#FDF5F9"/>
			<stop  offset="0.8794" style="stop-color:#FBE7F1"/>
			<stop  offset="1" style="stop-color:#F8DAE9"/>
		</linearGradient>
		<path id="XMLID_55_" class="st20" d="M104,559.6c-1.4-0.8-1.9-2.6-1.1-4.1c0.8-1.4,2.6-1.9,4.1-1.1l12.9,7.3
			c1.4,0.8,1.9,2.6,1.1,4.1c-0.8,1.4-2.6,1.9-4.1,1.1L104,559.6L104,559.6z"/>
		<path id="XMLID_54_" class="st7" d="M160.4,517.1c-0.9-1.4-0.6-3.2,0.7-4.2c1.4-0.9,3.2-0.6,4.2,0.7l8.5,12.1
			c0.9,1.3,0.6,3.2-0.7,4.2c-1.4,0.9-3.2,0.6-4.2-0.7L160.4,517.1L160.4,517.1z"/>
		<path id="XMLID_53_" class="st21" d="M160.8,514.4c-0.9-1.4-0.6-3.2,0.7-4.2c1.3-0.9,3.2-0.6,4.2,0.7l8.5,12.1
			c0.9,1.4,0.6,3.2-0.7,4.2c-1.3,0.9-3.2,0.6-4.2-0.7L160.8,514.4L160.8,514.4z"/>
		<g class="st22">
			<path id="XMLID_52_" class="st23" d="M376.3,354.3c1.7,0,2.9,1.6,2.9,3.5c-0.1,1.9-1.5,3.4-3.1,3.4l-14.8-0.1
				c-1.7,0-2.9-1.6-2.9-3.5c0.1-1.9,1.5-3.4,3.1-3.4L376.3,354.3L376.3,354.3z"/>
			<linearGradient id="XMLID_111_" gradientUnits="userSpaceOnUse" x1="369.1762" y1="351.3439" x2="369.1762" y2="357.6542">
				<stop  offset="0" style="stop-color:#FFFFFF"/>
				<stop  offset="0.4493" style="stop-color:#FFFDFE"/>
				<stop  offset="0.6893" style="stop-color:#FDF5F9"/>
				<stop  offset="0.8794" style="stop-color:#FBE7F1"/>
				<stop  offset="1" style="stop-color:#F8DAE9"/>
			</linearGradient>
			<path id="XMLID_51_" class="st24" d="M376.7,351.7c1.6,0,2.9,1.4,2.9,3.1c0,1.7-1.4,3-3.1,2.9l-14.8-0.3c-1.6,0-3-1.4-2.9-3.1
				c0-1.7,1.4-2.9,3.1-2.9L376.7,351.7L376.7,351.7z"/>
			<path id="XMLID_50_" class="st23" d="M415.2,474c1.6,0,2.9,1.6,2.9,3.5c-0.1,1.9-1.5,3.4-3.1,3.4l-14.8-0.1
				c-1.6,0-2.9-1.6-2.9-3.5c0.1-1.9,1.5-3.4,3.1-3.4L415.2,474L415.2,474z"/>
			<linearGradient id="XMLID_112_" gradientUnits="userSpaceOnUse" x1="408.1577" y1="471.0183" x2="408.1577" y2="477.3286">
				<stop  offset="0" style="stop-color:#FFFFFF"/>
				<stop  offset="0.4493" style="stop-color:#FFFDFE"/>
				<stop  offset="0.6893" style="stop-color:#FDF5F9"/>
				<stop  offset="0.8794" style="stop-color:#FBE7F1"/>
				<stop  offset="1" style="stop-color:#F8DAE9"/>
			</linearGradient>
			<path id="XMLID_49_" class="st25" d="M415.6,471.4c1.7,0,3,1.4,2.9,3.1c0,1.7-1.4,2.9-3.1,2.9l-14.8-0.3c-1.6,0-2.9-1.4-2.9-3.1
				c0-1.7,1.4-3,3.1-2.9L415.6,471.4L415.6,471.4z"/>
			<path id="XMLID_48_" class="st23" d="M385.1,435.5c-0.2-1.6,1.2-3.1,3.1-3.3c1.9-0.1,3.6,1.1,3.7,2.7l1.6,14.7
				c0.2,1.6-1.2,3.1-3.1,3.2c-1.9,0.2-3.6-1-3.7-2.7L385.1,435.5L385.1,435.5z"/>
			<linearGradient id="XMLID_113_" gradientUnits="userSpaceOnUse" x1="389.3505" y1="429.7733" x2="389.3505" y2="450.4885">
				<stop  offset="0" style="stop-color:#FFFFFF"/>
				<stop  offset="0.4493" style="stop-color:#FFFDFE"/>
				<stop  offset="0.6893" style="stop-color:#FDF5F9"/>
				<stop  offset="0.8794" style="stop-color:#FBE7F1"/>
				<stop  offset="1" style="stop-color:#F8DAE9"/>
			</linearGradient>
			<path id="XMLID_47_" class="st26" d="M385.7,433c-0.1-1.6,1.1-3.1,2.7-3.2c1.6-0.2,3.1,1.1,3.3,2.7l1.4,14.7
				c0.1,1.6-1.1,3.1-2.7,3.2c-1.6,0.1-3.1-1.1-3.2-2.7L385.7,433L385.7,433z"/>
			<path id="XMLID_46_" class="st23" d="M415.4,367.7c0.8-1.4,2.8-1.8,4.4-0.8c1.6,1,2.2,3,1.4,4.4l-7.5,12.8
				c-0.8,1.4-2.8,1.8-4.4,0.8c-1.6-1-2.2-3-1.4-4.4L415.4,367.7L415.4,367.7z"/>
			<linearGradient id="XMLID_114_" gradientUnits="userSpaceOnUse" x1="414.0148" y1="363.7348" x2="414.0148" y2="382.3758">
				<stop  offset="0" style="stop-color:#FFFFFF"/>
				<stop  offset="0.4493" style="stop-color:#FFFDFE"/>
				<stop  offset="0.6893" style="stop-color:#FDF5F9"/>
				<stop  offset="0.8794" style="stop-color:#FBE7F1"/>
				<stop  offset="1" style="stop-color:#F8DAE9"/>
			</linearGradient>
			<path id="XMLID_45_" class="st27" d="M415.3,365.2c0.9-1.4,2.7-1.9,4.1-1c1.4,0.9,1.9,2.7,1,4.1l-7.7,12.7
				c-0.9,1.4-2.7,1.9-4.1,1c-1.4-0.9-1.9-2.7-1-4.1L415.3,365.2L415.3,365.2z"/>
			<path id="XMLID_44_" class="st23" d="M369.6,481.4c1.4-0.8,3.3-0.1,4.2,1.6c0.9,1.7,0.5,3.7-1,4.5l-12.9,7.4
				c-1.4,0.8-3.3,0.1-4.2-1.6c-0.9-1.7-0.5-3.7,1-4.5L369.6,481.4L369.6,481.4z"/>
			<linearGradient id="XMLID_115_" gradientUnits="userSpaceOnUse" x1="364.7327" y1="478.3148" x2="364.7327" y2="491.4624">
				<stop  offset="0" style="stop-color:#FFFFFF"/>
				<stop  offset="0.4493" style="stop-color:#FFFDFE"/>
				<stop  offset="0.6893" style="stop-color:#FDF5F9"/>
				<stop  offset="0.8794" style="stop-color:#FBE7F1"/>
				<stop  offset="1" style="stop-color:#F8DAE9"/>
			</linearGradient>
			<path id="XMLID_43_" class="st28" d="M369.8,478.7c1.4-0.8,3.3-0.3,4.1,1.2c0.8,1.5,0.3,3.3-1.2,4.1l-12.9,7.2
				c-1.4,0.8-3.3,0.3-4.1-1.2c-0.8-1.4-0.3-3.3,1.2-4L369.8,478.7L369.8,478.7z"/>
			<path id="XMLID_42_" class="st23" d="M339.4,337.6c0.8-1.4,2.8-1.8,4.4-0.8c1.6,1,2.2,3,1.4,4.4l-7.5,12.8
				c-0.8,1.4-2.8,1.8-4.4,0.8c-1.6-1-2.2-3-1.4-4.4L339.4,337.6L339.4,337.6z"/>
			<linearGradient id="XMLID_116_" gradientUnits="userSpaceOnUse" x1="338.107" y1="333.6434" x2="338.107" y2="352.2861">
				<stop  offset="0" style="stop-color:#FFFFFF"/>
				<stop  offset="0.4493" style="stop-color:#FFFDFE"/>
				<stop  offset="0.6893" style="stop-color:#FDF5F9"/>
				<stop  offset="0.8794" style="stop-color:#FBE7F1"/>
				<stop  offset="1" style="stop-color:#F8DAE9"/>
			</linearGradient>
			<path id="XMLID_41_" class="st29" d="M339.4,335.1c0.8-1.4,2.7-1.9,4.1-1c1.4,0.9,1.9,2.7,1,4.1l-7.7,12.7
				c-0.9,1.4-2.7,1.9-4.1,1c-1.4-0.9-1.9-2.7-1-4.1L339.4,335.1L339.4,335.1z"/>
			<path id="XMLID_40_" class="st23" d="M387.7,511c1.6-0.2,3.1,1.2,3.3,3.1c0.2,1.9-1,3.6-2.6,3.8l-14.7,1.8
				c-1.6,0.2-3.1-1.2-3.3-3.1c-0.2-1.9,1-3.6,2.6-3.8L387.7,511L387.7,511z"/>
			<linearGradient id="XMLID_117_" gradientUnits="userSpaceOnUse" x1="381.8621" y1="508.563" x2="381.8621" y2="516.173">
				<stop  offset="0" style="stop-color:#FFFFFF"/>
				<stop  offset="0.4493" style="stop-color:#FFFDFE"/>
				<stop  offset="0.6893" style="stop-color:#FDF5F9"/>
				<stop  offset="0.8794" style="stop-color:#FBE7F1"/>
				<stop  offset="1" style="stop-color:#F8DAE9"/>
			</linearGradient>
			<path id="XMLID_39_" class="st30" d="M388.9,508.6c1.6-0.2,3.1,1,3.3,2.6c0.2,1.6-1,3.1-2.6,3.3l-14.7,1.6
				c-1.6,0.2-3.1-1-3.3-2.6c-0.2-1.6,1-3.1,2.6-3.3L388.9,508.6L388.9,508.6z"/>
			<path id="XMLID_38_" class="st23" d="M213,565c-1.5-0.6-2.3-2.4-1.6-3.9c0.6-1.5,2.4-2.3,3.9-1.6l13.7,5.6
				c1.5,0.6,2.3,2.4,1.6,3.9c-0.6,1.5-2.4,2.3-3.9,1.6L213,565L213,565z"/>
			<linearGradient id="XMLID_118_" gradientUnits="userSpaceOnUse" x1="220.8197" y1="556.2292" x2="220.8197" y2="567.7814">
				<stop  offset="0" style="stop-color:#FFFFFF"/>
				<stop  offset="0.4493" style="stop-color:#FFFDFE"/>
				<stop  offset="0.6893" style="stop-color:#FDF5F9"/>
				<stop  offset="0.8794" style="stop-color:#FBE7F1"/>
				<stop  offset="1" style="stop-color:#F8DAE9"/>
			</linearGradient>
			<path id="XMLID_37_" class="st31" d="M212.8,562c-1.5-0.6-2.3-2.4-1.6-3.9c0.6-1.5,2.4-2.3,3.9-1.6l13.7,5.6
				c1.5,0.6,2.3,2.4,1.6,3.9c-0.6,1.5-2.4,2.3-3.9,1.6L212.8,562L212.8,562z"/>
			<path id="XMLID_36_" class="st23" d="M421.6,400.7c1.4-0.8,3.3-0.1,4.2,1.6c0.9,1.7,0.5,3.7-1,4.5l-12.9,7.4
				c-1.4,0.8-3.3,0.1-4.2-1.6c-0.9-1.7-0.5-3.7,1-4.5L421.6,400.7L421.6,400.7z"/>
			<linearGradient id="XMLID_119_" gradientUnits="userSpaceOnUse" x1="416.7043" y1="397.6202" x2="416.7043" y2="410.762">
				<stop  offset="0" style="stop-color:#FFFFFF"/>
				<stop  offset="0.4493" style="stop-color:#FFFDFE"/>
				<stop  offset="0.6893" style="stop-color:#FDF5F9"/>
				<stop  offset="0.8794" style="stop-color:#FBE7F1"/>
				<stop  offset="1" style="stop-color:#F8DAE9"/>
			</linearGradient>
			<path id="XMLID_35_" class="st32" d="M421.7,398c1.4-0.8,3.3-0.3,4.1,1.2c0.8,1.4,0.3,3.3-1.2,4.1l-12.9,7.2
				c-1.4,0.8-3.3,0.3-4.1-1.2c-0.8-1.4-0.3-3.3,1.2-4.1L421.7,398L421.7,398z"/>
			<path id="XMLID_34_" class="st23" d="M211.4,387.7c-0.2-1.6,1.2-3.1,3.1-3.2c1.9-0.2,3.6,1.1,3.7,2.7l1.6,14.7
				c0.2,1.6-1.2,3.1-3.1,3.2c-1.9,0.2-3.6-1.1-3.7-2.7L211.4,387.7L211.4,387.7z"/>
			<linearGradient id="XMLID_120_" gradientUnits="userSpaceOnUse" x1="215.6481" y1="381.9004" x2="215.6481" y2="402.6147">
				<stop  offset="0" style="stop-color:#FFFFFF"/>
				<stop  offset="0.4493" style="stop-color:#FFFDFE"/>
				<stop  offset="0.6893" style="stop-color:#FDF5F9"/>
				<stop  offset="0.8794" style="stop-color:#FBE7F1"/>
				<stop  offset="1" style="stop-color:#F8DAE9"/>
			</linearGradient>
			<path id="XMLID_33_" class="st33" d="M212,385.2c-0.1-1.6,1.1-3.1,2.7-3.2c1.6-0.1,3.1,1.1,3.2,2.7l1.4,14.7
				c0.2,1.6-1,3.1-2.7,3.2c-1.6,0.2-3.1-1.1-3.2-2.7L212,385.2L212,385.2z"/>
			<path id="XMLID_32_" class="st23" d="M251.1,549.9c1.7,0,2.9,1.6,2.9,3.5c-0.1,1.9-1.5,3.4-3.1,3.4l-14.8-0.1
				c-1.7,0-2.9-1.6-2.9-3.5c0.1-1.9,1.5-3.4,3.1-3.4L251.1,549.9L251.1,549.9z"/>
			<linearGradient id="XMLID_121_" gradientUnits="userSpaceOnUse" x1="244.0326" y1="546.9326" x2="244.0326" y2="553.2377">
				<stop  offset="0" style="stop-color:#FFFFFF"/>
				<stop  offset="0.4493" style="stop-color:#FFFDFE"/>
				<stop  offset="0.6893" style="stop-color:#FDF5F9"/>
				<stop  offset="0.8794" style="stop-color:#FBE7F1"/>
				<stop  offset="1" style="stop-color:#F8DAE9"/>
			</linearGradient>
			<path id="XMLID_31_" class="st34" d="M251.5,547.3c1.7,0,3,1.4,2.9,3.1c0,1.6-1.4,2.9-3.1,2.9l-14.8-0.3c-1.7,0-3-1.4-2.9-3.1
				c0-1.6,1.4-2.9,3.1-2.9L251.5,547.3L251.5,547.3z"/>
			<path id="XMLID_30_" class="st23" d="M357.8,506.7c1.6-0.4,3.2,0.7,3.7,2.6c0.4,1.8-0.5,3.7-2.1,4.1l-14.3,3.8
				c-1.6,0.4-3.2-0.7-3.7-2.6c-0.4-1.9,0.5-3.7,2.1-4.1L357.8,506.7L357.8,506.7z"/>
			<linearGradient id="XMLID_122_" gradientUnits="userSpaceOnUse" x1="352.2175" y1="504.0789" x2="352.2175" y2="513.669">
				<stop  offset="0" style="stop-color:#FFFFFF"/>
				<stop  offset="0.4493" style="stop-color:#FFFDFE"/>
				<stop  offset="0.6893" style="stop-color:#FDF5F9"/>
				<stop  offset="0.8794" style="stop-color:#FBE7F1"/>
				<stop  offset="1" style="stop-color:#F8DAE9"/>
			</linearGradient>
			<path id="XMLID_29_" class="st35" d="M358.7,504.2c1.6-0.4,3.2,0.6,3.6,2.2c0.4,1.6-0.6,3.2-2.2,3.6l-14.4,3.6
				c-1.6,0.4-3.2-0.6-3.6-2.2c-0.4-1.6,0.6-3.2,2.2-3.6L358.7,504.2L358.7,504.2z"/>
			<path id="XMLID_28_" class="st23" d="M426.2,351.4c-0.5-1.6,0.4-3.2,2-3.7c1.6-0.5,3.2,0.4,3.7,2l4.2,14.2c0.5,1.6-0.4,3.2-2,3.7
				c-1.6,0.5-3.2-0.4-3.7-2L426.2,351.4L426.2,351.4z"/>
			<linearGradient id="XMLID_123_" gradientUnits="userSpaceOnUse" x1="431.3295" y1="345.0436" x2="431.3295" y2="365.2012">
				<stop  offset="0" style="stop-color:#FFFFFF"/>
				<stop  offset="0.4493" style="stop-color:#FFFDFE"/>
				<stop  offset="0.6893" style="stop-color:#FDF5F9"/>
				<stop  offset="0.8794" style="stop-color:#FBE7F1"/>
				<stop  offset="1" style="stop-color:#F8DAE9"/>
			</linearGradient>
			<path id="XMLID_27_" class="st36" d="M426.4,348.9c-0.5-1.6,0.4-3.2,2-3.7c1.6-0.5,3.2,0.4,3.7,2l4.2,14.2c0.5,1.6-0.4,3.2-2,3.7
				c-1.6,0.5-3.2-0.4-3.7-2L426.4,348.9L426.4,348.9z"/>
			<path id="XMLID_26_" class="st23" d="M292.9,349.9c-1.7,0-3-1.2-3.1-2.9c0-1.7,1.3-3,2.9-3.1l14.8-0.4c1.6,0,3,1.3,3.1,2.9
				c0,1.6-1.3,3-2.9,3.1L292.9,349.9L292.9,349.9z"/>
			<linearGradient id="XMLID_124_" gradientUnits="userSpaceOnUse" x1="298.8511" y1="340.8201" x2="298.8511" y2="347.2133">
				<stop  offset="0" style="stop-color:#FFFFFF"/>
				<stop  offset="0.4493" style="stop-color:#FFFDFE"/>
				<stop  offset="0.6893" style="stop-color:#FDF5F9"/>
				<stop  offset="0.8794" style="stop-color:#FBE7F1"/>
				<stop  offset="1" style="stop-color:#F8DAE9"/>
			</linearGradient>
			<path id="XMLID_25_" class="st37" d="M291.5,347.2c-1.7,0-3-1.3-3.1-2.9c0-1.7,1.3-3,2.9-3.1l14.8-0.4c1.7,0,3,1.3,3.1,2.9
				c0,1.7-1.3,3-2.9,3.1L291.5,347.2L291.5,347.2z"/>
			<path id="XMLID_24_" class="st23" d="M397.6,336.8c0.5-1.6,2.4-2.3,4.2-1.6c1.8,0.7,2.8,2.5,2.2,4l-4.9,14
				c-0.5,1.6-2.4,2.3-4.2,1.6c-1.8-0.7-2.8-2.5-2.2-4.1L397.6,336.8L397.6,336.8z"/>
			<linearGradient id="XMLID_125_" gradientUnits="userSpaceOnUse" x1="397.3178" y1="332.4413" x2="397.3178" y2="352.3201">
				<stop  offset="0" style="stop-color:#FFFFFF"/>
				<stop  offset="0.4493" style="stop-color:#FFFDFE"/>
				<stop  offset="0.6893" style="stop-color:#FDF5F9"/>
				<stop  offset="0.8794" style="stop-color:#FBE7F1"/>
				<stop  offset="1" style="stop-color:#F8DAE9"/>
			</linearGradient>
			<path id="XMLID_23_" class="st38" d="M397.1,334.4c0.6-1.5,2.3-2.3,3.8-1.8c1.6,0.6,2.3,2.3,1.8,3.8l-5.1,13.9
				c-0.6,1.5-2.3,2.3-3.8,1.8c-1.5-0.6-2.3-2.3-1.8-3.8L397.1,334.4L397.1,334.4z"/>
			<path id="XMLID_22_" class="st23" d="M271.7,544.7c1.5,0.8,1.9,2.7,1,4.4c-0.9,1.7-2.9,2.4-4.3,1.6l-13.2-6.8
				c-1.5-0.8-1.9-2.7-1-4.4c0.9-1.7,2.9-2.4,4.3-1.6L271.7,544.7L271.7,544.7z"/>
			<linearGradient id="XMLID_126_" gradientUnits="userSpaceOnUse" x1="265.3156" y1="535.1676" x2="265.3156" y2="548.1597">
				<stop  offset="0" style="stop-color:#FFFFFF"/>
				<stop  offset="0.4493" style="stop-color:#FFFDFE"/>
				<stop  offset="0.6893" style="stop-color:#FDF5F9"/>
				<stop  offset="0.8794" style="stop-color:#FBE7F1"/>
				<stop  offset="1" style="stop-color:#F8DAE9"/>
			</linearGradient>
			<path id="XMLID_21_" class="st39" d="M273.3,542.5c1.5,0.8,2,2.6,1.2,4c-0.8,1.5-2.6,2-4.1,1.2l-13-7c-1.5-0.8-2-2.6-1.2-4.1
				c0.8-1.4,2.6-2,4-1.2L273.3,542.5L273.3,542.5z"/>
			<path id="XMLID_20_" class="st23" d="M400.8,446c-0.9-1.3-0.6-3.2,0.7-4.2c1.4-0.9,3.2-0.6,4.2,0.7l8.5,12.1
				c0.9,1.4,0.6,3.2-0.7,4.2c-1.4,0.9-3.2,0.6-4.2-0.7L400.8,446L400.8,446z"/>
			<linearGradient id="XMLID_127_" gradientUnits="userSpaceOnUse" x1="407.84" y1="438.6158" x2="407.84" y2="456.7184">
				<stop  offset="0" style="stop-color:#FFFFFF"/>
				<stop  offset="0.4493" style="stop-color:#FFFDFE"/>
				<stop  offset="0.6893" style="stop-color:#FDF5F9"/>
				<stop  offset="0.8794" style="stop-color:#FBE7F1"/>
				<stop  offset="1" style="stop-color:#F8DAE9"/>
			</linearGradient>
			<path id="XMLID_19_" class="st40" d="M401.1,443.3c-0.9-1.4-0.6-3.2,0.7-4.2c1.3-0.9,3.2-0.6,4.1,0.7l8.5,12.1
				c0.9,1.4,0.6,3.2-0.7,4.2c-1.3,0.9-3.2,0.6-4.1-0.7L401.1,443.3L401.1,443.3z"/>
			<path id="XMLID_18_" class="st23" d="M372.1,371.9c-0.2-1.6,1.2-3.1,3.1-3.2s3.6,1.1,3.7,2.7l1.6,14.7c0.2,1.6-1.2,3.1-3.1,3.3
				c-1.9,0.1-3.6-1.1-3.7-2.7L372.1,371.9L372.1,371.9z"/>
			<linearGradient id="XMLID_128_" gradientUnits="userSpaceOnUse" x1="376.3575" y1="366.1736" x2="376.3575" y2="386.8879">
				<stop  offset="0" style="stop-color:#FFFFFF"/>
				<stop  offset="0.4493" style="stop-color:#FFFDFE"/>
				<stop  offset="0.6893" style="stop-color:#FDF5F9"/>
				<stop  offset="0.8794" style="stop-color:#FBE7F1"/>
				<stop  offset="1" style="stop-color:#F8DAE9"/>
			</linearGradient>
			<path id="XMLID_17_" class="st41" d="M372.7,369.4c-0.2-1.6,1-3.1,2.7-3.2c1.6-0.2,3.1,1.1,3.3,2.7l1.4,14.7
				c0.2,1.6-1.1,3.1-2.7,3.2c-1.6,0.1-3.1-1.1-3.2-2.7L372.7,369.4L372.7,369.4z"/>
			<path id="XMLID_16_" class="st23" d="M437.3,378.1c1.4-0.8,3.3-0.1,4.2,1.6c0.9,1.7,0.5,3.7-1,4.5l-12.9,7.4
				c-1.4,0.8-3.3,0.1-4.2-1.5c-0.9-1.7-0.5-3.7,1-4.5L437.3,378.1L437.3,378.1z"/>
			<linearGradient id="XMLID_129_" gradientUnits="userSpaceOnUse" x1="432.4346" y1="375.0509" x2="432.4346" y2="388.1952">
				<stop  offset="0" style="stop-color:#FFFFFF"/>
				<stop  offset="0.4493" style="stop-color:#FFFDFE"/>
				<stop  offset="0.6893" style="stop-color:#FDF5F9"/>
				<stop  offset="0.8794" style="stop-color:#FBE7F1"/>
				<stop  offset="1" style="stop-color:#F8DAE9"/>
			</linearGradient>
			<path id="XMLID_15_" class="st42" d="M437.5,375.4c1.4-0.8,3.3-0.3,4.1,1.2c0.8,1.4,0.3,3.3-1.2,4.1l-13,7.2
				c-1.4,0.8-3.3,0.3-4.1-1.2c-0.8-1.4-0.3-3.3,1.2-4.1L437.5,375.4L437.5,375.4z"/>
			<path id="XMLID_14_" class="st23" d="M310.8,551.1c1.4-0.8,3.3-0.1,4.2,1.6c0.9,1.7,0.5,3.7-1,4.5l-12.9,7.4
				c-1.4,0.8-3.3,0.1-4.2-1.5c-0.9-1.7-0.5-3.7,1-4.5L310.8,551.1L310.8,551.1z"/>
			<linearGradient id="XMLID_130_" gradientUnits="userSpaceOnUse" x1="305.9228" y1="548.0682" x2="305.9228" y2="561.2146">
				<stop  offset="0" style="stop-color:#FFFFFF"/>
				<stop  offset="0.4493" style="stop-color:#FFFDFE"/>
				<stop  offset="0.6893" style="stop-color:#FDF5F9"/>
				<stop  offset="0.8794" style="stop-color:#FBE7F1"/>
				<stop  offset="1" style="stop-color:#F8DAE9"/>
			</linearGradient>
			<path id="XMLID_13_" class="st43" d="M311,548.4c1.5-0.8,3.3-0.3,4.1,1.2c0.8,1.5,0.3,3.3-1.2,4.1l-13,7.2
				c-1.4,0.8-3.3,0.3-4.1-1.2c-0.8-1.5-0.3-3.3,1.2-4.1L311,548.4L311,548.4z"/>
			<path id="XMLID_12_" class="st23" d="M319.9,527.8c1.6-0.3,3.2,1,3.4,2.9c0.3,1.9-0.8,3.6-2.5,3.9l-14.6,2.4
				c-1.6,0.3-3.2-1-3.4-2.9c-0.3-1.9,0.8-3.6,2.5-3.9L319.9,527.8L319.9,527.8z"/>
			<path id="XMLID_11_" class="st44" d="M321,525.4c1.6-0.2,3.2,0.9,3.4,2.5c0.2,1.6-0.9,3.2-2.5,3.4l-14.6,2.2
				c-1.6,0.2-3.2-0.9-3.4-2.5c-0.2-1.6,0.9-3.2,2.5-3.4L321,525.4L321,525.4z"/>
			<path id="XMLID_10_" class="st23" d="M352.6,337.3c-1.6-0.6-2.4-2.3-1.8-3.8c0.6-1.6,2.3-2.4,3.8-1.8l14,4.9
				c1.6,0.6,2.4,2.3,1.8,3.8c-0.6,1.6-2.3,2.4-3.8,1.8L352.6,337.3L352.6,337.3z"/>
			<linearGradient id="XMLID_131_" gradientUnits="userSpaceOnUse" x1="360.2529" y1="328.4846" x2="360.2529" y2="339.4067">
				<stop  offset="0" style="stop-color:#FFFFFF"/>
				<stop  offset="0.4493" style="stop-color:#FFFDFE"/>
				<stop  offset="0.6893" style="stop-color:#FDF5F9"/>
				<stop  offset="0.8794" style="stop-color:#FBE7F1"/>
				<stop  offset="1" style="stop-color:#F8DAE9"/>
			</linearGradient>
			<path id="XMLID_9_" class="st45" d="M352.3,334.3c-1.6-0.6-2.4-2.3-1.8-3.8c0.6-1.6,2.3-2.4,3.8-1.8l14,4.9
				c1.6,0.6,2.4,2.3,1.8,3.8c-0.6,1.6-2.3,2.4-3.8,1.8L352.3,334.3L352.3,334.3z"/>
			<path id="XMLID_8_" class="st23" d="M288.9,354.9c1.4-0.8,3.3-0.1,4.2,1.5c0.9,1.7,0.5,3.7-1,4.5l-12.9,7.4
				c-1.4,0.8-3.3,0.1-4.2-1.5c-0.9-1.7-0.5-3.7,1-4.5L288.9,354.9L288.9,354.9z"/>
			<linearGradient id="XMLID_132_" gradientUnits="userSpaceOnUse" x1="284.0392" y1="351.8002" x2="284.0392" y2="364.9426">
				<stop  offset="0" style="stop-color:#FFFFFF"/>
				<stop  offset="0.4493" style="stop-color:#FFFDFE"/>
				<stop  offset="0.6893" style="stop-color:#FDF5F9"/>
				<stop  offset="0.8794" style="stop-color:#FBE7F1"/>
				<stop  offset="1" style="stop-color:#F8DAE9"/>
			</linearGradient>
			<path id="XMLID_7_" class="st46" d="M289.1,352.2c1.4-0.8,3.3-0.3,4.1,1.2c0.8,1.4,0.3,3.3-1.2,4.1l-13,7.2
				c-1.4,0.8-3.3,0.3-4-1.2c-0.8-1.4-0.3-3.3,1.2-4.1L289.1,352.2L289.1,352.2z"/>
			<path id="XMLID_6_" class="st23" d="M428.3,426.5c0.8-1.4,2.8-1.8,4.4-0.8c1.6,1,2.2,3,1.4,4.4l-7.5,12.8
				c-0.8,1.4-2.8,1.8-4.4,0.8c-1.6-1-2.2-3-1.4-4.4L428.3,426.5L428.3,426.5z"/>
			<linearGradient id="XMLID_133_" gradientUnits="userSpaceOnUse" x1="427.0092" y1="422.5396" x2="427.0092" y2="441.1894">
				<stop  offset="0" style="stop-color:#FFFFFF"/>
				<stop  offset="0.4493" style="stop-color:#FFFDFE"/>
				<stop  offset="0.6893" style="stop-color:#FDF5F9"/>
				<stop  offset="0.8794" style="stop-color:#FBE7F1"/>
				<stop  offset="1" style="stop-color:#F8DAE9"/>
			</linearGradient>
			<path id="XMLID_5_" class="st47" d="M428.3,424c0.8-1.4,2.7-1.9,4.1-1c1.4,0.9,1.9,2.7,1,4.1l-7.7,12.7c-0.8,1.4-2.7,1.9-4.1,1
				c-1.4-0.9-1.9-2.7-1-4.1L428.3,424L428.3,424z"/>
			<path id="XMLID_4_" class="st23" d="M227.5,383.5c-1.2-1.1-1.2-3.1,0.1-4.5c1.3-1.4,3.4-1.6,4.6-0.5l11.1,9.9
				c1.2,1.1,1.2,3.1-0.1,4.5c-1.3,1.4-3.4,1.6-4.6,0.5L227.5,383.5L227.5,383.5z"/>
			<linearGradient id="XMLID_134_" gradientUnits="userSpaceOnUse" x1="235.3129" y1="374.2893" x2="235.3129" y2="390.2707">
				<stop  offset="0" style="stop-color:#FFFFFF"/>
				<stop  offset="0.4493" style="stop-color:#FFFDFE"/>
				<stop  offset="0.6893" style="stop-color:#FDF5F9"/>
				<stop  offset="0.8794" style="stop-color:#FBE7F1"/>
				<stop  offset="1" style="stop-color:#F8DAE9"/>
			</linearGradient>
			<path id="XMLID_3_" class="st48" d="M227.8,379.5c-1.2-1.1-1.3-3-0.2-4.2c1.1-1.2,3-1.3,4.2-0.2l10.9,10c1.2,1.1,1.3,3,0.2,4.2
				c-1.1,1.2-3,1.3-4.2,0.2L227.8,379.5L227.8,379.5z"/>
			<path id="XMLID_2_" class="st23" d="M358.1,470.4c1.7,0,2.9,1.6,2.9,3.5c-0.1,1.9-1.5,3.4-3.1,3.4l-14.8-0.1
				c-1.7,0-2.9-1.6-2.9-3.5c0.1-1.9,1.5-3.4,3.1-3.4L358.1,470.4L358.1,470.4z"/>
			<linearGradient id="XMLID_135_" gradientUnits="userSpaceOnUse" x1="351.0567" y1="467.4305" x2="351.0567" y2="473.7357">
				<stop  offset="0" style="stop-color:#FFFFFF"/>
				<stop  offset="0.4493" style="stop-color:#FFFDFE"/>
				<stop  offset="0.6893" style="stop-color:#FDF5F9"/>
				<stop  offset="0.8794" style="stop-color:#FBE7F1"/>
				<stop  offset="1" style="stop-color:#F8DAE9"/>
			</linearGradient>
			<path id="XMLID_1_" class="st49" d="M358.5,467.8c1.7,0,3,1.4,2.9,3.1c0,1.7-1.4,3-3.1,2.9l-14.8-0.3c-1.7,0-3-1.4-2.9-3.1
				c0-1.7,1.4-3,3.1-2.9L358.5,467.8L358.5,467.8z"/>
		</g>
	</g>
</g>
<g id="Layer_2" class="st5">
	<path id="XMLID_95_" class="st50" d="M111.3,621.6c16.4-2.9,23.3-8.5,48.3-23.7s-6.9-9.7,48.6-8.3s65.3-2.8,80.6-23.6
		c15.3-20.8-5.6-13.9,45.8-22.2c51.4-8.3,54.2-34.8,62.5-52.1c8.3-17.3-6.9-7.6,27.8-22.9c34.7-15.3,36.1-27.8,36.1-51.4
		s2.8-22.2,12.5-33.3c9.7-11.1,14.1-18.7,8.9-24.1C353.6,226.3,2.1,503.2,111.3,621.6z"/>
	<path id="XMLID_97_" class="st51" d="M315.2,431.2c0,0-11.1,2.8-20.8,16.7c-9.7,13.9-34,5.6-40.6,16.7s-5.2,11-8,27
		c-2.8,16-23.6,16-11.1,31.3s30.8,23.6,38.3,18.1c7.5-5.6,28.4-16.7,42.3-18.1c13.9-1.4,30.5-12.8,30.6-31.3
		c0-18.5,16.7-21.5,22.2-31.2c5.6-9.7,20.8-22.2,0-29.2c-20.8-6.9-30.6-16.7-41.7-8.3C315.2,431.2,315.2,431.2,315.2,431.2z"/>
</g>
</svg>
